<?xml version="1.0" encoding="UTF-8"?>
<svg width="916px" height="494px" viewBox="0 0 916 494" version="1.1" xmlns="http://www.w3.org/2000/svg" xmlns:xlink="http://www.w3.org/1999/xlink">
    <title>logo</title>
    <g id="logo" stroke="none" stroke-width="1" fill="none" fill-rule="evenodd">
        <text id="model" opacity="0" font-family="SFProDisplay-Regular, SF Pro Display" font-size="64" font-weight="normal" letter-spacing="1.92000008" fill="#757575">
            <tspan x="322.991875" y="194">RxXpress</tspan>
        </text>
        <g id="chaos" transform="translate(4.000000, 1.000000)" stroke="#FBEEFF" stroke-width="4">
            <path d="M182.904373,135.776129 L220.579534,199.352964 C224.802876,206.479853 222.449086,215.681032 215.322197,219.904373 C213.007293,221.276168 210.365999,222 207.675161,222 L132.324839,222 C124.040567,222 117.324839,215.284271 117.324839,207 C117.324839,204.309163 118.04867,201.667869 119.420466,199.352964 L157.095627,135.776129 C161.318968,128.649241 170.520147,126.295451 177.647036,130.518792 C179.812909,131.802273 181.620893,133.610256 182.904373,135.776129 Z" id="Triangle" transform="translate(170.000000, 168.000000) rotate(-37.000000) translate(-170.000000, -168.000000) "></path>
            <path d="M687.292465,69.6139357 L705.252551,99.9215809 C707.504999,103.722588 706.249645,108.629884 702.448638,110.882332 C701.214022,111.613956 699.805332,112 698.370218,112 L662.450046,112 C658.031768,112 654.450046,108.418278 654.450046,104 C654.450046,102.564887 654.83609,101.156197 655.567714,99.9215809 L673.5278,69.6139357 C675.780249,65.8129285 680.687544,64.5575739 684.488551,66.8100226 C685.643684,67.4945454 686.607942,68.4588034 687.292465,69.6139357 Z" id="Triangle-Copy" transform="translate(680.410132, 85.000000) rotate(-160.000000) translate(-680.410132, -85.000000) "></path>
            <path d="M104.733631,379.420904 L127.67376,418.132371 C131.052433,423.833882 129.169401,431.194825 123.46789,434.573498 C121.615966,435.670935 119.502931,436.25 117.350261,436.25 L71.4700033,436.25 C64.8425863,436.25 59.4700033,430.877417 59.4700033,424.25 C59.4700033,422.09733 60.0490687,419.984295 61.1465049,418.132371 L84.086634,379.420904 C87.465307,373.719393 94.8262503,371.836361 100.527761,375.215034 C102.26046,376.241818 103.706846,377.688205 104.733631,379.420904 Z" id="Triangle-Copy-2" transform="translate(94.410132, 399.125000) rotate(35.000000) translate(-94.410132, -399.125000) "></path>
            <path d="M790.733631,216.420904 L817.67376,261.882371 C821.052433,267.583882 819.169401,274.944825 813.46789,278.323498 C811.615966,279.420935 809.502931,280 807.350261,280 L753.470003,280 C746.842586,280 741.470003,274.627417 741.470003,268 C741.470003,265.84733 742.049069,263.734295 743.146505,261.882371 L770.086634,216.420904 C773.465307,210.719393 780.82625,208.836361 786.527761,212.215034 C788.26046,213.241818 789.706846,214.688205 790.733631,216.420904 Z" id="Triangle-Copy-3" transform="translate(780.410132, 239.500000) rotate(-83.000000) translate(-780.410132, -239.500000) "></path>
            <circle id="Oval" cx="439" cy="196" r="44"></circle>
            <circle id="Oval-Copy" cx="541.410132" cy="411" r="32"></circle>
            <circle id="Oval-Copy-2" cx="858.410132" cy="337" r="24"></circle>
            <rect id="Rectangle" transform="translate(650.410132, 303.000000) rotate(-15.000000) translate(-650.410132, -303.000000) " x="606.410132" y="259" width="88" height="88" rx="16"></rect>
            <rect id="Rectangle-Copy" transform="translate(388.410132, 85.000000) rotate(-135.000000) translate(-388.410132, -85.000000) " x="364.410132" y="61" width="48" height="48" rx="16"></rect>
            <path d="M435.67828,399.332097 L463.934651,447.014723 C467.102157,452.359889 465.336814,459.260774 459.991648,462.42828 C458.255469,463.457126 456.274499,464 454.256371,464 L397.743629,464 C391.530426,464 386.493629,458.963203 386.493629,452.75 C386.493629,450.731872 387.036503,448.750902 388.065349,447.014723 L416.32172,399.332097 C419.489226,393.986931 426.390111,392.221588 431.735277,395.389094 C433.359682,396.351705 434.715669,397.707692 435.67828,399.332097 Z" id="Triangle" transform="translate(426.000000, 423.500000) scale(-1, 1) rotate(-82.000000) translate(-426.000000, -423.500000) "></path>
            <path d="M187.130756,36.1464369 L200.600821,58.8771708 C202.290157,61.7279262 201.348641,65.4083978 198.497886,67.0977343 C197.571924,67.6464525 196.515406,67.9359851 195.439071,67.9359851 L168.498942,67.9359851 C165.185234,67.9359851 162.498942,65.2496936 162.498942,61.9359851 C162.498942,60.8596502 162.788475,59.8031326 163.337193,58.8771708 L176.807258,36.1464369 C178.496594,33.2956815 182.177066,32.3541655 185.027821,34.043502 C185.89417,34.5568942 186.617364,35.2800876 187.130756,36.1464369 Z" id="Triangle-Copy" transform="translate(181.969007, 47.685985) scale(-1, 1) rotate(-205.000000) translate(-181.969007, -47.685985) "></path>
            <path d="M172.742624,301.065678 L189.947721,330.099278 C192.481725,334.375412 191.069451,339.896119 186.793318,342.430124 C185.404376,343.253201 183.819599,343.6875 182.205097,343.6875 L147.794903,343.6875 C142.82434,343.6875 138.794903,339.658063 138.794903,334.6875 C138.794903,333.072998 139.229202,331.488221 140.052279,330.099278 L157.257376,301.065678 C159.791381,296.789545 165.312088,295.377271 169.588222,297.911275 C170.887745,298.681364 171.972536,299.766154 172.742624,301.065678 Z" id="Triangle-Copy-2" transform="translate(165.000000, 315.843750) scale(-1, 1) rotate(-10.000000) translate(-165.000000, -315.843750) "></path>
            <path d="M54.7426238,59.2796525 L74.9477206,93.3757533 C77.4817254,97.6518863 76.0694513,103.172594 71.7933183,105.706599 C70.4043755,106.529676 68.8195992,106.963975 67.2050968,106.963975 L26.7949032,106.963975 C21.8243405,106.963975 17.7949032,102.934538 17.7949032,97.9639748 C17.7949032,96.3494724 18.2292022,94.7646961 19.0522794,93.3757533 L39.2573762,59.2796525 C41.791381,55.0035194 47.3120885,53.5912454 51.5882215,56.1252502 C52.8877454,56.8953384 53.9725356,57.9801286 54.7426238,59.2796525 Z" id="Triangle-Copy-3" transform="translate(47.000000, 76.588975) scale(-1, 1) rotate(-128.000000) translate(-47.000000, -76.588975) "></path>
            <circle id="Oval" transform="translate(249.410132, 74.000000) scale(-1, 1) rotate(-45.000000) translate(-249.410132, -74.000000) " cx="249.410132" cy="74" r="33"></circle>
            <circle id="Oval-Copy" transform="translate(244.410132, 322.000000) scale(-1, 1) rotate(-45.000000) translate(-244.410132, -322.000000) " cx="244.410132" cy="322" r="24"></circle>
            <circle id="Oval-Copy-2" transform="translate(347.962324, 467.177083) scale(-1, 1) rotate(-45.000000) translate(-347.962324, -467.177083) " cx="347.962324" cy="467.177083" r="18"></circle>
            <rect id="Rectangle" transform="translate(54.410132, 238.000000) scale(-1, 1) rotate(-60.000000) translate(-54.410132, -238.000000) " x="21.4101324" y="205" width="66" height="66" rx="12"></rect>
            <rect id="Rectangle-Copy" transform="translate(267.410132, 411.000000) scale(-1, 1) rotate(-180.000000) translate(-267.410132, -411.000000) " x="249.410132" y="393" width="36" height="36" rx="12"></rect>
            <path d="M865.862319,15.8880647 L884.6999,47.6764821 C886.81157,51.2399263 885.634675,55.8405159 882.071231,57.9521865 C880.913779,58.6380842 879.593132,59 878.247713,59 L840.572552,59 C836.430416,59 833.072552,55.6421356 833.072552,51.5 C833.072552,50.1545813 833.434468,48.8339344 834.120365,47.6764821 L852.957946,15.8880647 C855.069616,12.3246205 859.670206,11.1477255 863.23365,13.2593961 C864.316587,13.9011363 865.220579,14.8051281 865.862319,15.8880647 Z" id="Triangle" transform="translate(859.410132, 32.000000) rotate(9.000000) translate(-859.410132, -32.000000) "></path>
            <path d="M144.851298,259.806968 L153.831342,274.96079 C154.957566,276.861294 154.329889,279.314942 152.429385,280.441166 C151.812077,280.806978 151.107732,281 150.390175,281 L132.430089,281 C130.22095,281 128.430089,279.209139 128.430089,277 C128.430089,276.282443 128.623111,275.578098 128.988923,274.96079 L137.968966,259.806968 C139.095191,257.906464 141.548838,257.278787 143.449342,258.405011 C144.026908,258.747273 144.509037,259.229402 144.851298,259.806968 Z" id="Triangle-Copy" transform="translate(141.410132, 267.500000) rotate(-114.000000) translate(-141.410132, -267.500000) "></path>
            <path d="M648.414444,139.309847 L659.884509,158.665581 C661.573845,161.516337 660.632329,165.196808 657.781574,166.886145 C656.855612,167.434863 655.799095,167.724396 654.72276,167.724396 L631.782631,167.724396 C628.468922,167.724396 625.782631,165.038104 625.782631,161.724396 C625.782631,160.648061 626.072163,159.591543 626.620882,158.665581 L638.090946,139.309847 C639.780283,136.459092 643.460754,135.517576 646.31151,137.206913 C647.177859,137.720305 647.901052,138.443498 648.414444,139.309847 Z" id="Triangle-Copy-2" transform="translate(643.252695, 149.161896) rotate(81.000000) translate(-643.252695, -149.161896) "></path>
            <path d="M868.571882,221.710452 L882.041946,244.441186 C883.731283,247.291941 882.789767,250.972413 879.939011,252.661749 C879.013049,253.210467 877.956532,253.5 876.880197,253.5 L849.940068,253.5 C846.626359,253.5 843.940068,250.813708 843.940068,247.5 C843.940068,246.423665 844.229601,245.367147 844.778319,244.441186 L858.248383,221.710452 C859.93772,218.859696 863.618191,217.91818 866.468947,219.607517 C867.335296,220.120909 868.058489,220.844103 868.571882,221.710452 Z" id="Triangle-Copy-3" transform="translate(863.410132, 233.250000) rotate(-37.000000) translate(-863.410132, -233.250000) "></path>
            <circle id="Oval" transform="translate(820.801998, 159.232358) rotate(46.000000) translate(-820.801998, -159.232358) " cx="820.801998" cy="159.232358" r="22"></circle>
            <circle id="Oval-Copy" transform="translate(714.200381, 189.507499) rotate(46.000000) translate(-714.200381, -189.507499) " cx="714.200381" cy="189.507499" r="16"></circle>
            <circle id="Oval-Copy-2" transform="translate(622.849227, 54.603026) rotate(46.000000) translate(-622.849227, -54.603026) " cx="622.849227" cy="54.6030262" r="12"></circle>
            <rect id="Rectangle" transform="translate(750.410132, 311.000000) rotate(31.000000) translate(-750.410132, -311.000000) " x="728.410132" y="289" width="44" height="44" rx="8"></rect>
            <rect id="Rectangle-Copy" transform="translate(780.446531, 40.734357) rotate(-89.000000) translate(-780.446531, -40.734357) " x="768.446531" y="28.7343568" width="24" height="24" rx="8"></rect>
            <path d="M883.642267,435.10073 L897.770453,458.942043 C899.354206,461.614626 898.471535,465.065068 895.798951,466.648821 C894.930862,467.163244 893.940377,467.434681 892.931313,467.434681 L864.674942,467.434681 C861.56834,467.434681 859.049942,464.916283 859.049942,461.809681 C859.049942,460.800617 859.321379,459.810132 859.835802,458.942043 L873.963988,435.10073 C875.547741,432.428147 878.998183,431.545475 881.670766,433.129228 C882.482968,433.610534 883.160962,434.288527 883.642267,435.10073 Z" id="Triangle" transform="translate(878.803127, 447.184681) rotate(123.000000) translate(-878.803127, -447.184681) "></path>
            <path d="M667.991007,197.355226 L674.726039,208.720593 C675.570707,210.145971 675.099949,211.986206 673.674572,212.830875 C673.211591,213.105234 672.683332,213.25 672.145165,213.25 L658.6751,213.25 C657.018246,213.25 655.6751,211.906854 655.6751,210.25 C655.6751,209.711833 655.819866,209.183574 656.094225,208.720593 L662.829258,197.355226 C663.673926,195.929848 665.514162,195.45909 666.93954,196.303758 C667.372714,196.560455 667.734311,196.922051 667.991007,197.355226 Z" id="Triangle-Copy"></path>
            <path d="M94.7814443,162.532839 L103.383993,177.049639 C104.650995,179.187706 103.944858,181.94806 101.806792,183.215062 C101.11232,183.6266 100.319932,183.84375 99.5126807,183.84375 L82.307584,183.84375 C79.8223026,183.84375 77.807584,181.829031 77.807584,179.34375 C77.807584,178.536499 78.0247335,177.744111 78.4362721,177.049639 L87.0388205,162.532839 C88.3058228,160.394772 91.0661766,159.688635 93.2042431,160.955638 C93.8540051,161.340682 94.3964001,161.883077 94.7814443,162.532839 Z" id="Triangle-Copy-2" transform="translate(90.910132, 169.921875) rotate(195.000000) translate(-90.910132, -169.921875) "></path>
            <path d="M633.281444,444.532839 L643.383993,461.580889 C644.650995,463.718956 643.944858,466.47931 641.806792,467.746312 C641.11232,468.15785 640.319932,468.375 639.512681,468.375 L619.307584,468.375 C616.822303,468.375 614.807584,466.360281 614.807584,463.875 C614.807584,463.067749 615.024733,462.275361 615.436272,461.580889 L625.53882,444.532839 C626.805823,442.394772 629.566177,441.688635 631.704243,442.955638 C632.354005,443.340682 632.8964,443.883077 633.281444,444.532839 Z" id="Triangle-Copy-3" transform="translate(629.410132, 453.187500) rotate(77.000000) translate(-629.410132, -453.187500) "></path>
            <circle id="Oval" transform="translate(771.910132, 441.500000) rotate(160.000000) translate(-771.910132, -441.500000) " cx="771.910132" cy="441.5" r="16.5"></circle>
            <circle id="Oval-Copy" transform="translate(740.831580, 399.231818) rotate(160.000000) translate(-740.831580, -399.231818) " cx="740.83158" cy="399.231818" r="12"></circle>
            <circle id="Oval-Copy-2" transform="translate(66.410132, 315.000000) rotate(160.000000) translate(-66.410132, -315.000000) " cx="66.4101324" cy="315" r="9"></circle>
            <rect id="Rectangle" transform="translate(403.500000, 333.500000) rotate(145.000000) translate(-403.500000, -333.500000) " x="387" y="317" width="33" height="33" rx="6"></rect>
            <rect id="Rectangle-Copy" transform="translate(822.410132, 453.000000) rotate(25.000000) translate(-822.410132, -453.000000) " x="813.410132" y="444" width="18" height="18" rx="6"></rect>
        </g>
        <rect id="highlight" fill="#FBEEFF" x="258" y="222" width="400" height="50" rx="8"></rect>
        <path d="M323.8295,268.142455 L323.670096,268.259868 C317.109009,272.940386 308.54143,273.359409 301.643989,269.679994 L301.2095,269.441434 M266,271.462069 L266,203.806897 L287.75,203.806897 L287.75,203.806897 C301.25,203.806897 308.75,213.57931 308.75,221.848276 C308.75,230.117241 305.75,240.641379 287.75,240.641379 L273.5,240.641379 L273.5,240.641379 L296.022054,265.305378 C297.56442,266.994429 299.318346,268.373644 301.206031,269.439573 L301.2095,269.441434 M492.4985,248.182676 L492.5,256.427586 C492.5,264.730902 485.784271,271.462069 477.5,271.462069 L477.5,271.462069 L470.75,271.462069 M575.7785,239.754345 L575.947772,240.046962 C577.984145,243.454856 581.655998,245.76831 585.876231,245.897725 L586.25,245.903448 L590,245.903448 C597.041631,245.903448 602.75,251.62494 602.75,258.682759 C602.75,265.740577 597.041631,271.462069 590,271.462069 L590,271.462069 L589.25,271.462069 C577.25,271.462069 577.25,258.682759 566,258.682759 C554.75,258.682759 556.25,271.462069 541.25,271.462069 L541.25,271.462069 L540.781032,271.456924 C529.399629,271.206974 520.25,261.881345 520.25,250.413793 L520.25,250.413793 L520.25,239.889655 C520.25,229.925677 528.308875,221.848276 538.25,221.848276 C548.191125,221.848276 556.25,229.925677 556.25,239.889655 L556.25,239.889655 L556.25,242.377862 M634.0745,245.903448 L637.25,245.903448 C644.291631,245.903448 650,251.62494 650,258.682759 C650,265.740577 644.291631,271.462069 637.25,271.462069 L637.25,271.462069 L636.5,271.462069 C624.5,271.462069 624.5,258.682759 613.25,258.682759 L613.25,258.682759 M436.25,261.689655 L436.25,221.848276 L436.25,221.848276 L447.5,221.848276 C467,221.848276 474.5,234.251724 474.5,246.655172 C474.5,259.058621 467,270.710345 447.5,270.710345 C445.632334,270.710345 442.774198,270.753508 438.925593,270.839834 C429.875098,271.04284 421.141936,268.314348 413.920852,263.255335 L413.552,262.993145 M323.8295,268.142455 L324.086128,267.955323 C324.63711,267.541541 325.172993,267.096868 325.691509,266.621203 C326.907579,265.505631 327.988362,264.250418 328.911534,262.88149 L350.577987,230.753323 C357.536771,220.434467 371.52388,217.72356 381.819069,224.698342 C384.0512,226.210566 385.994212,228.112315 387.555569,230.313022 L403.757788,253.14977 C406.448192,256.94185 409.705434,260.206141 413.368386,262.861593 L413.552,262.993145 M492.4985,248.182676 L492.5,234.627586 C492.5,227.569768 498.208369,221.848276 505.25,221.848276 L505.625,221.848276 C508.881509,221.848276 511.861015,223.036992 514.155155,225.005122 M530,245.903448 L556.25,245.903448 L556.25,242.377862 M634.0745,245.903448 L633.5,245.903448 C626.872583,245.903448 621.5,240.518515 621.5,233.875862 C621.5,227.23321 626.872583,221.848276 633.5,221.848276 L635.75,221.848276 C643.484367,221.848276 649.779559,228.024282 649.994335,235.724384 L650,236.131034 M575.7785,239.754345 C574.802751,238.007788 574.25,236.006524 574.25,233.875862 C574.25,227.23321 579.622583,221.848276 586.25,221.848276 L588.5,221.848276 C596.234367,221.848276 602.529559,228.024282 602.744335,235.724384 L602.75,236.131034 M322.25,221.848276 L355.687178,271.498713 M370.207008,271.53765 L436.25,179 M436.25,278.97931 L436.25,288" id="text" stroke="#212121" stroke-width="4" stroke-linecap="round" stroke-linejoin="round"></path>
    </g>
</svg>